<svg width="1125" height="1126" viewBox="0 0 1125 1126" fill="none" xmlns="http://www.w3.org/2000/svg">
<circle cx="562.278" cy="562.945" r="562.251" fill="#FBF5EF" fill-opacity="0.91"/>
<g clip-path="url(#clip0_3987_25)">
<path d="M461.25 381.111V321.912H461.189C461.189 293.224 472.98 267.089 491.883 248.187C510.846 229.224 536.92 217.432 565.608 217.432V217.493H565.79V217.432C594.478 217.432 620.613 229.224 639.516 248.126C658.479 267.089 670.209 293.163 670.27 321.851H670.209V381.779C657.506 385.973 648.328 397.886 648.328 411.987C648.328 429.552 662.551 443.835 680.177 443.835C697.742 443.835 712.025 429.552 712.025 411.987C712.025 400.56 706.008 390.592 697.013 385.001V321.851H696.952C696.891 285.809 682.183 253.049 658.479 229.345C634.714 205.58 601.893 190.811 565.851 190.811V190.75H565.669V190.811C529.627 190.811 496.867 205.58 473.163 229.284C449.398 253.049 434.629 285.87 434.629 321.912H434.568V386.642C426.91 392.477 419.735 401.654 419.735 411.987C419.735 429.552 436.209 443.835 453.774 443.835C471.339 443.835 483.088 429.066 483.088 411.5C483.027 396.549 475.169 384.514 461.25 381.111ZM351.908 382.144H391.779C386.552 391.929 383.513 403.174 383.513 415.086C383.513 419.219 383.878 423.231 384.547 427.121H364.915L331.122 892.629H809.272L775.479 427.121H747.52C748.189 423.231 748.553 419.159 748.553 415.086C748.553 403.174 745.575 391.99 740.287 382.144H788.425C796.994 382.144 804.47 385.608 810.001 391.139C815.35 396.488 818.753 403.721 819.3 411.561L855.099 905.028C855.16 906 855.221 906.729 855.221 907.155C855.221 915.603 851.635 923.079 846.104 928.549C840.938 933.594 833.948 936.937 826.412 937.484C825.439 937.544 824.649 937.605 824.223 937.605H316.109C315.684 937.605 314.894 937.544 313.921 937.484C306.445 936.937 299.395 933.655 294.229 928.549C288.637 923.079 285.112 915.603 285.112 907.094C285.112 906.669 285.173 906 285.233 904.967L321.032 411.5C321.579 403.66 324.983 396.427 330.332 391.079C335.923 385.608 343.399 382.144 351.908 382.144ZM514.918 382.144H617.21C611.982 391.929 608.944 403.174 608.944 415.086C608.944 419.219 609.308 423.231 609.977 427.121H522.09C522.759 423.231 523.123 419.159 523.123 415.086C523.184 403.174 520.145 391.99 514.918 382.144Z" fill="#E47811"/>
<g clip-path="url(#clip1_3987_25)">
<path fill-rule="evenodd" clip-rule="evenodd" d="M607.606 566.201C603.933 564.381 600.217 562.849 596.483 561.577C594.589 560.929 592.882 560.432 591.308 560.035C589.681 559.614 588.032 559.297 586.332 559.034C561.979 555.238 550.078 569.515 535.658 586.73C534.098 588.598 532.487 590.494 531.278 591.909C501.964 626.118 477.24 662.355 456.242 699.577C435.27 736.798 418.052 775.056 403.825 813.226C402.883 815.753 402.737 816.096 402.641 816.385C400.243 822.548 399.081 825.576 403.307 829.411C407.158 832.893 410.016 831.794 415.655 829.625C417.123 829.061 418.9 828.359 419.312 828.217C451.75 816.362 485.709 799.49 521.665 776.103C557.468 752.797 595.319 722.923 635.67 685.034C641.044 679.982 634.682 685.974 638.231 682.668C653.721 668.208 663.937 658.693 661.504 635.902C661.362 634.63 661.165 633.229 660.913 631.726C660.662 630.25 660.385 628.799 660.057 627.351C658.442 620.159 655.53 613.161 651.666 606.555C651.865 599.076 634.23 584.513 607.606 566.201Z" fill="#CC690C"/>
<path fill-rule="evenodd" clip-rule="evenodd" d="M628.125 671.817C629.747 670.286 628.733 671.227 628.125 671.817Z" fill="white"/>
<path fill-rule="evenodd" clip-rule="evenodd" d="M589.054 638.296C591.839 640.923 591.968 645.346 589.341 648.156C586.714 650.941 582.291 651.07 579.481 648.443L536.856 608.204C513.962 635.742 493.946 664.681 476.4 694.355L502.746 719.211C505.53 721.838 505.659 726.261 503.033 729.071C500.406 731.856 495.983 731.985 493.172 729.358L469.263 706.801L469.239 706.854C449.802 741.348 433.646 776.737 420.146 812.152C436.474 805.922 453.256 798.299 470.514 789.178L450.462 770.311C447.678 767.684 447.549 763.261 450.175 760.45C452.802 757.666 457.225 757.537 460.036 760.163L483.329 782.139C493.269 776.538 503.35 770.386 513.623 763.708C532.201 751.606 551.352 737.69 571.147 721.777L527.881 680.983C525.096 678.356 524.968 673.933 527.594 671.123C530.221 668.338 534.644 668.21 537.454 670.836L581.98 712.869C596.166 701.051 610.687 688.208 625.566 674.261L628.126 671.843C627.771 672.192 627.542 672.381 628.126 671.843C640.37 660.42 648.38 652.922 646.758 637.45C646.648 636.334 646.486 635.245 646.325 634.182C646.136 633.068 645.893 631.877 645.594 630.558C644.247 624.53 641.679 618.59 638.26 612.96C634.514 606.82 629.684 600.998 624.274 595.843C619.453 591.244 614.099 587.13 608.557 583.672C603.041 580.239 597.337 577.514 591.761 575.593C590.472 575.162 589.132 574.759 587.742 574.408C586.405 574.083 585.2 573.831 584.101 573.655C567.987 571.129 558.475 582.499 547.025 596.164L545.842 597.552L589.054 638.296Z" fill="#E47811"/>
<path fill-rule="evenodd" clip-rule="evenodd" d="M710.794 598.273C696.865 582.222 681.85 574.508 665.228 575.07C685.107 560.248 698.729 535.323 700.421 511.136C673.155 515.496 651.24 530.169 638.537 551.787C638.76 534.386 630.22 519.193 612.721 505.746C600.363 522.223 595.513 546.138 606.88 567.212L653.78 609.384C674.337 616.988 696.028 610.733 710.794 598.273Z" fill="#146131"/>
<path fill-rule="evenodd" clip-rule="evenodd" d="M710.794 598.273C696.865 582.222 681.85 574.508 665.228 575.07C654.936 582.895 642.332 586.438 627.469 585.725L653.753 609.385C674.337 616.988 696.028 610.733 710.794 598.273Z" fill="#22974E"/>
</g>
</g>
<defs>
<clipPath id="clip0_3987_25">
<rect width="570.17" height="746.855" fill="white" transform="translate(285.112 190.75)"/>
</clipPath>
<clipPath id="clip1_3987_25">
<rect width="364.275" height="380.113" fill="white" transform="translate(395.978 444.159)"/>
</clipPath>
</defs>
</svg>
