<svg width="571" height="748" viewBox="0 0 571 748" fill="none" xmlns="http://www.w3.org/2000/svg">
<g clip-path="url(#clip0_3987_20)">
<path d="M176.25 191.111V131.912H176.189C176.189 103.224 187.98 77.089 206.883 58.1867C225.846 39.2235 251.92 27.4324 280.608 27.4324V27.4932H280.79V27.4324C309.478 27.4324 335.613 39.2235 354.516 58.1259C373.479 77.089 385.209 103.163 385.27 131.851H385.209V191.779C372.506 195.973 363.328 207.886 363.328 221.987C363.328 239.552 377.551 253.835 395.177 253.835C412.742 253.835 427.025 239.552 427.025 221.987C427.025 210.56 421.008 200.592 412.013 195.001V131.851H411.952C411.891 95.809 397.182 63.049 373.479 39.3451C349.714 15.5804 316.893 0.811084 280.851 0.811084V0.750305H280.669V0.811084C244.627 0.811084 211.867 15.5804 188.163 39.2843C164.398 63.049 149.629 95.8698 149.629 131.912H149.568V196.642C141.91 202.477 134.735 211.654 134.735 221.987C134.735 239.552 151.209 253.835 168.774 253.835C186.339 253.835 198.088 239.066 198.088 221.5C198.027 206.549 190.169 194.514 176.25 191.111ZM66.9083 192.144H106.779C101.552 201.929 98.5135 213.174 98.5135 225.086C98.5135 229.219 98.8781 233.231 99.5467 237.121H79.915L46.1218 702.629H524.272L490.479 237.121H462.52C463.189 233.231 463.553 229.159 463.553 225.086C463.553 213.174 460.575 201.99 455.287 192.144H503.425C511.994 192.144 519.47 195.608 525.001 201.139C530.35 206.488 533.753 213.721 534.3 221.561L570.099 715.028C570.16 716 570.221 716.729 570.221 717.155C570.221 725.603 566.635 733.079 561.104 738.549C555.938 743.594 548.948 746.937 541.412 747.484C540.439 747.544 539.649 747.605 539.223 747.605H31.1093C30.6839 747.605 29.8937 747.544 28.9213 747.484C21.4454 746.937 14.395 743.655 9.22879 738.549C3.6371 733.079 0.111908 725.603 0.111908 717.094C0.111908 716.669 0.172687 716 0.233466 714.967L36.0324 221.5C36.5794 213.66 39.9831 206.427 45.3316 201.079C50.9233 195.608 58.3992 192.144 66.9083 192.144ZM229.918 192.144H332.21C326.983 201.929 323.944 213.174 323.944 225.086C323.944 229.219 324.308 233.231 324.977 237.121H237.09C237.759 233.231 238.123 229.159 238.123 225.086C238.184 213.174 235.145 201.99 229.918 192.144Z" fill="#E47811"/>
<g clip-path="url(#clip1_3987_20)">
<path fill-rule="evenodd" clip-rule="evenodd" d="M322.606 376.201C318.933 374.381 315.217 372.849 311.483 371.577C309.589 370.929 307.882 370.432 306.308 370.035C304.681 369.614 303.032 369.297 301.332 369.034C276.979 365.238 265.078 379.515 250.658 396.73C249.098 398.598 247.487 400.494 246.278 401.909C216.964 436.118 192.24 472.355 171.242 509.577C150.27 546.798 133.052 585.056 118.825 623.226C117.883 625.753 117.737 626.096 117.641 626.385C115.243 632.548 114.081 635.576 118.307 639.411C122.158 642.893 125.016 641.794 130.655 639.625C132.123 639.061 133.9 638.359 134.312 638.217C166.75 626.362 200.709 609.49 236.665 586.103C272.468 562.797 310.319 532.923 350.67 495.034C356.044 489.982 349.682 495.974 353.231 492.668C368.721 478.208 378.937 468.693 376.504 445.902C376.362 444.63 376.165 443.229 375.913 441.726C375.662 440.25 375.385 438.799 375.057 437.351C373.442 430.159 370.53 423.161 366.666 416.555C366.865 409.076 349.23 394.513 322.606 376.201Z" fill="#CC690C"/>
<path fill-rule="evenodd" clip-rule="evenodd" d="M343.125 481.817C343.733 481.227 344.747 480.286 343.125 481.817V481.817Z" fill="white"/>
<path fill-rule="evenodd" clip-rule="evenodd" d="M304.054 448.296C306.839 450.923 306.968 455.346 304.341 458.156C301.714 460.941 297.291 461.07 294.481 458.443L251.856 418.204C228.962 445.742 208.946 474.681 191.4 504.355L217.746 529.211C220.53 531.838 220.659 536.261 218.033 539.071C215.406 541.856 210.983 541.985 208.172 539.358L184.263 516.801L184.239 516.854C164.802 551.348 148.646 586.737 135.146 622.152C151.474 615.922 168.256 608.299 185.514 599.178L165.462 580.311C162.678 577.684 162.549 573.261 165.175 570.45C167.802 567.666 172.225 567.537 175.036 570.163L198.329 592.139C208.269 586.538 218.35 580.386 228.623 573.708C247.201 561.606 266.352 547.69 286.147 531.777L242.881 490.983C240.096 488.356 239.968 483.933 242.594 481.123C245.221 478.338 249.644 478.21 252.454 480.836L296.98 522.869C311.166 511.051 325.687 498.208 340.566 484.261L343.126 481.843C342.542 482.381 342.771 482.192 343.126 481.843C355.37 470.42 363.38 462.922 361.758 447.45C361.648 446.334 361.486 445.245 361.325 444.182C361.136 443.068 360.893 441.877 360.594 440.558C359.247 434.53 356.679 428.59 353.26 422.96C349.514 416.82 344.684 410.998 339.274 405.843C334.453 401.244 329.099 397.13 323.557 393.672C318.041 390.239 312.337 387.514 306.761 385.593C305.472 385.162 304.132 384.759 302.742 384.408C301.405 384.083 300.2 383.831 299.101 383.655C282.987 381.129 273.475 392.499 262.025 406.164L260.842 407.552L304.054 448.296Z" fill="#E47811"/>
<path fill-rule="evenodd" clip-rule="evenodd" d="M425.794 408.273C411.865 392.222 396.85 384.508 380.228 385.07C400.107 370.248 413.729 345.323 415.421 321.136C388.155 325.496 366.24 340.169 353.537 361.787C353.76 344.386 345.22 329.193 327.721 315.746C315.363 332.223 310.513 356.138 321.88 377.212L368.78 419.384C389.337 426.988 411.028 420.733 425.794 408.273Z" fill="#146131"/>
<path fill-rule="evenodd" clip-rule="evenodd" d="M425.794 408.273C411.865 392.222 396.85 384.508 380.228 385.07C369.936 392.895 357.332 396.438 342.469 395.725L368.753 419.385C389.337 426.988 411.028 420.733 425.794 408.273Z" fill="#22974E"/>
</g>
</g>
<defs>
<clipPath id="clip0_3987_20">
<rect width="570.17" height="746.855" fill="white" transform="translate(0.111908 0.750305)"/>
</clipPath>
<clipPath id="clip1_3987_20">
<rect width="364.275" height="380.113" fill="white" transform="translate(110.978 254.159)"/>
</clipPath>
</defs>
</svg>
